HIERARCHY
ROOT SpineBase
{
  OFFSET 0.000000 0.000000 0.000000
  CHANNELS 6 Xposition Yposition Zposition Zrotation Xrotation Yrotation
  JOINT SpineMid
  {
    OFFSET 0.000000 31.025654 0.000000
    CHANNELS 3 Zrotation Xrotation Yrotation
    JOINT SpineShoulder
    {
      OFFSET 0.212256 23.040360 -0.648409
      CHANNELS 3 Zrotation Xrotation Yrotation
      JOINT Neck
      {
        OFFSET 0.164913 7.617101 -0.520658
        CHANNELS 3 Zrotation Xrotation Yrotation
        JOINT Head
        {
          OFFSET 4.628906 13.808930 1.417088
          CHANNELS 3 Zrotation Xrotation Yrotation
          End Site
          {
            OFFSET 0 0 0
          }
        }
      }
      JOINT ShoulderLeft
      {
        OFFSET -7.051589 -2.253564 -14.177839
        CHANNELS 3 Zrotation Xrotation Yrotation
        JOINT ElbowLeft
        {
          OFFSET -4.082873 -22.498224 -6.744382
          CHANNELS 3 Zrotation Xrotation Yrotation
          JOINT WristLeft
          {
            OFFSET 6.674893 -28.456476 -4.087558
            CHANNELS 3 Zrotation Xrotation Yrotation
            JOINT HandLeft
            {
              OFFSET 1.010250 -5.647793 1.623621
              CHANNELS 3 Zrotation Xrotation Yrotation
              JOINT HandTipLeft
              {
                OFFSET 1.507607 -6.664597 0.295247
                CHANNELS 3 Zrotation Xrotation Yrotation
                End Site
                {
                  OFFSET 0 0 0
                }
              }
              JOINT ThumbLeft
              {
                OFFSET 4.511907 1.250057 2.765012
                CHANNELS 3 Zrotation Xrotation Yrotation
                End Site
                {
                  OFFSET 0 0 0
                }
              }
            }
          }
        }
      }
      JOINT ShoulderRight
      {
        OFFSET 9.805524 -5.791178 13.704777
        CHANNELS 3 Zrotation Xrotation Yrotation
        JOINT ElbowRight
        {
          OFFSET -0.117832 -27.005577 7.169800
          CHANNELS 3 Zrotation Xrotation Yrotation
          JOINT WristRight
          {
            OFFSET 1.932768 -23.653712 -4.282006
            CHANNELS 3 Zrotation Xrotation Yrotation
            JOINT HandRight
            {
              OFFSET -0.216174 -6.611122 -1.254042
              CHANNELS 3 Zrotation Xrotation Yrotation
              JOINT HandTipRight
              {
                OFFSET -0.491120 -6.919804 -0.963791
                CHANNELS 3 Zrotation Xrotation Yrotation
                End Site
                {
                  OFFSET 0 0 0
                }
              }
              JOINT ThumbRight
              {
                OFFSET 1.418875 -2.654389 -0.290949
                CHANNELS 3 Zrotation Xrotation Yrotation
                End Site
                {
                  OFFSET 0 0 0
                }
              }
            }
          }
        }
      }
    }
  }
  JOINT HipLeft
  {
    OFFSET -2.394564 1.970756 -8.577973
    CHANNELS 3 Zrotation Xrotation Yrotation
    JOINT KneeLeft
    {
      OFFSET -7.825139 -37.273348 -5.084115
      CHANNELS 3 Zrotation Xrotation Yrotation
      JOINT AnkleLeft
      {
        OFFSET -6.722575 -35.191331 3.674617
        CHANNELS 3 Zrotation Xrotation Yrotation
        JOINT FootLeft
        {
          OFFSET 4.406157 -8.644386 -0.726156
          CHANNELS 3 Zrotation Xrotation Yrotation
          End Site
          {
            OFFSET 0 0 0
          }
        }
      }
    }
  }
  JOINT HipRight
  {
    OFFSET 4.818638 -0.220361 1.975662
    CHANNELS 3 Zrotation Xrotation Yrotation
    JOINT KneeRight
    {
      OFFSET -5.661213 -39.679109 3.599562
      CHANNELS 3 Zrotation Xrotation Yrotation
      JOINT AnkleRight
      {
        OFFSET -10.329441 -34.585607 2.523049
        CHANNELS 3 Zrotation Xrotation Yrotation
        JOINT FootRight
        {
          OFFSET 3.227889 -6.707165 -5.575621
          CHANNELS 3 Zrotation Xrotation Yrotation
          End Site
          {
            OFFSET 0 0 0
          }
        }
      }
    }
  }
}
MOTION
Frames: 14
Frame Time: 0.033333
-117.472256 81.520528 316.933379 -0.000000 0.000000 -55.648160 -0.000000 0.000000 55.648160 -0.000000 0.000000 0.000000 -0.000000 0.000000 0.000000 0.000000 0.000000 0.000000 -0.000000 0.000000 0.000000 -0.000000 0.000000 0.000000 -0.000000 0.000000 0.000000 -0.000000 0.000000 0.000000 0.000000 0.000000 0.000000 0.000000 0.000000 0.000000 -0.000000 0.000000 0.000000 -0.000000 0.000000 0.000000 -0.000000 0.000000 0.000000 -0.000000 0.000000 0.000000 0.000000 0.000000 0.000000 0.000000 0.000000 0.000000 -0.000000 0.000000 55.648160 -0.000000 0.000000 0.000000 -0.000000 0.000000 0.000000 0.000000 0.000000 0.000000 -0.000000 0.000000 55.648160 -0.000000 0.000000 0.000000 -0.000000 0.000000 0.000000 0.000000 0.000000 0.000000
-117.471244 81.523510 316.860879 0.091344 0.186474 -55.286438 0.101265 -0.181278 55.286449 -0.000000 0.000000 0.000000 -0.000000 0.000000 0.000000 0.000000 0.000000 0.000000 -0.000000 0.000000 0.000000 -2.147945 0.593994 0.460720 -0.443779 4.354719 -0.219787 1.257756 -3.818844 0.071814 0.000000 0.000000 0.000000 0.000000 0.000000 0.000000 -0.000000 0.000000 0.000000 0.112365 -0.844259 -0.088611 0.065322 1.887102 0.017776 -0.179339 -1.042955 0.066602 0.000000 0.000000 0.000000 0.000000 0.000000 0.000000 0.101265 -0.181278 55.286449 -0.000000 0.000000 0.000000 0.911909 1.247909 0.546842 0.000000 0.000000 0.000000 0.101265 -0.181278 55.286449 -0.000000 0.000000 0.000000 1.704105 -0.600326 -1.691839 0.000000 0.000000 0.000000
-117.495985 81.515297 316.784975 0.147579 0.372621 -54.938762 0.220229 -0.334851 54.938925 -0.000000 0.000000 0.000000 0.638767 -1.196448 0.343203 0.000000 0.000000 0.000000 -0.834619 -0.722169 0.376211 -3.368963 1.902164 0.593726 -0.662252 8.001280 -0.333188 2.548128 -6.914635 0.247237 0.000000 0.000000 0.000000 0.000000 0.000000 0.000000 0.352800 0.841943 0.087572 -0.131548 -2.399193 -0.254848 0.234040 3.636975 -0.005951 -0.463522 -2.080123 0.148024 0.000000 0.000000 0.000000 0.000000 0.000000 0.000000 0.220229 -0.334851 54.938925 -0.000000 0.000000 0.000000 1.682336 2.204656 0.941586 0.000000 0.000000 0.000000 0.220229 -0.334851 54.938925 -0.000000 0.000000 0.000000 3.139862 -0.882741 -2.990464 0.000000 0.000000 0.000000
-117.546476 81.495888 316.705667 0.168602 0.558249 -54.603937 0.357413 -0.460789 54.604553 -0.000000 0.000000 0.000000 0.881920 -1.627880 0.469638 0.000000 0.000000 0.000000 -1.222958 -1.064322 0.548880 -4.917515 2.795380 0.931782 -0.739295 11.015852 -0.388055 3.862536 -9.334270 0.545073 0.000000 0.000000 0.000000 0.000000 0.000000 0.000000 0.490124 1.157996 0.120445 -0.158326 -3.301833 -0.354663 0.506555 5.207270 -0.073811 -0.851003 -3.065046 0.240065 0.000000 0.000000 0.000000 0.000000 0.000000 0.000000 0.357413 -0.460789 54.604553 0.620958 -0.596618 0.182135 1.683504 3.413708 0.975659 0.000000 0.000000 0.000000 0.357413 -0.460789 54.604553 -0.000000 0.000000 0.000000 4.296688 -0.808771 -3.883546 0.000000 0.000000 0.000000
-117.622720 81.465284 316.622956 0.154385 0.743163 -54.280852 0.513246 -0.559206 54.282356 -0.000000 0.000000 0.000000 1.073923 -1.950015 0.564551 0.000000 0.000000 0.000000 -1.595710 -1.396622 0.713192 -6.324805 3.640943 1.275653 -0.754955 13.487110 -0.414237 5.207739 -11.134562 0.974322 0.000000 0.000000 0.000000 0.000000 0.000000 0.000000 0.604296 1.410802 0.147327 -0.159809 -4.018210 -0.437602 0.873412 6.553784 -0.183793 -2.193652 -3.214897 0.350691 0.000000 0.000000 0.000000 0.000000 0.000000 0.000000 0.513246 -0.559206 54.282356 0.763890 -0.718903 0.222028 1.978294 3.775690 0.995621 0.000000 0.000000 0.000000 0.513246 -0.559206 54.282356 -0.000000 0.000000 0.000000 5.165449 -0.353463 -4.365353 0.000000 0.000000 0.000000
-117.724715 81.423484 316.536841 0.104969 0.927174 -53.968474 0.688077 -0.630268 53.971410 0.417783 0.747869 0.009644 0.796827 -2.911872 0.627948 0.000000 0.000000 0.000000 -2.374618 -2.467753 0.829729 -7.555820 4.433974 1.608229 -0.782466 15.501511 -0.429019 6.597639 -12.367677 1.539922 0.000000 0.000000 0.000000 0.000000 0.000000 0.000000 0.279122 0.855845 0.162887 -0.136142 -4.553942 -0.504606 1.315366 7.637514 -0.328677 -3.392451 -4.003212 0.481203 0.000000 0.000000 0.000000 0.000000 0.000000 0.000000 0.688077 -0.630268 53.971410 0.877924 -0.806172 0.252038 2.108064 3.703344 0.857950 0.000000 0.000000 0.000000 0.688077 -0.630268 53.971410 -0.000000 0.000000 0.000000 5.735578 0.494536 -4.433636 0.000000 0.000000 0.000000
-117.895319 81.356920 316.416763 -0.027753 1.144790 -53.589616 0.425273 0.039438 53.592116 0.103953 0.111923 0.005121 0.897695 -3.298486 0.705642 0.000000 0.000000 0.000000 -2.776112 -3.098047 1.025468 -8.589441 5.378356 1.929881 -1.641749 15.711631 -1.072150 8.718114 -10.908559 2.987787 0.000000 0.000000 0.000000 0.000000 0.000000 0.000000 0.396929 0.772264 0.188186 -0.016671 -4.865027 -0.559388 1.791014 8.235983 -0.488681 -5.066737 -5.199321 0.668034 0.000000 0.000000 0.000000 0.000000 0.000000 0.000000 1.958268 -0.515578 53.662497 0.298798 -0.237214 0.236104 1.505691 2.574360 0.239836 0.000000 0.000000 0.000000 1.711430 -1.237746 53.745189 0.010652 0.967100 -0.137215 6.486021 2.868003 -3.986209 0.000000 0.000000 0.000000
-118.076787 81.285741 316.290479 -0.183237 1.355752 -53.272330 0.493688 0.035036 53.272477 0.122138 0.149162 -0.000746 1.034540 -3.477440 0.714265 0.000000 0.000000 0.000000 -3.013571 -3.692789 1.180444 -9.513011 6.199700 2.243389 -2.474654 18.121353 -0.907713 10.772030 -10.540199 4.416816 0.000000 0.000000 0.000000 0.000000 0.000000 0.000000 0.564887 0.658534 0.220102 0.023199 -4.904357 -0.589116 2.868759 8.423873 -0.822021 -6.910003 -4.976523 0.835237 0.000000 0.000000 0.000000 0.000000 0.000000 0.000000 2.740425 -0.505352 53.394265 0.071287 0.099369 0.217978 1.143010 1.305365 -0.405066 0.000000 0.000000 0.000000 2.290132 -1.221693 53.490716 -0.202565 1.210957 -0.189148 6.807700 6.278042 -2.806375 0.000000 0.000000 0.000000
-118.250404 81.210393 316.203575 -0.326864 1.532844 -53.012377 0.531102 0.037042 53.010308 0.124871 0.180810 -0.007556 1.157095 -3.487796 0.671044 0.000000 0.000000 0.000000 -3.244504 -4.144513 1.314675 -9.780556 6.757526 2.376814 -3.727029 20.870684 -0.392554 13.819995 -11.617994 5.867010 0.000000 0.000000 0.000000 0.000000 0.000000 0.000000 0.771349 0.611972 0.258927 0.030513 -4.890586 -0.614702 3.156422 9.225625 -0.979762 -9.107164 -4.541433 0.848506 0.000000 0.000000 0.000000 0.000000 0.000000 0.000000 3.456598 -0.476574 53.176830 -0.235255 0.519746 0.175424 0.824071 -0.248545 -1.102815 0.000000 0.000000 0.000000 2.816826 -1.147868 53.288555 -0.444338 1.409659 -0.236108 5.966936 6.708447 -1.939272 0.000000 0.000000 0.000000
-118.404493 81.137663 316.151948 -0.460515 1.654719 -52.792289 0.537888 0.045991 52.788009 0.111736 0.207838 -0.015242 1.298738 -3.268148 0.558990 0.000000 0.000000 0.000000 -3.398088 -4.406752 1.409239 -10.247083 6.928416 2.485022 -2.354335 21.714116 -0.089463 14.103172 -11.741889 6.018980 0.000000 0.000000 0.000000 0.000000 0.000000 0.000000 0.923147 0.338687 0.281672 0.087669 -4.594065 -0.617684 3.606393 9.670351 -1.164097 -9.614105 -5.174383 0.855958 0.000000 0.000000 0.000000 0.000000 0.000000 0.000000 4.097825 -0.429690 52.996035 -0.626601 1.114425 0.088986 0.813821 -1.512206 -1.537915 0.000000 0.000000 0.000000 3.241907 -1.042216 53.114663 -0.661283 1.560976 -0.273820 5.061989 6.558888 -1.254499 0.000000 0.000000 0.000000
-118.499847 81.078392 316.132547 -0.526517 1.736160 -52.676241 0.503568 0.070330 52.670387 0.087012 0.230702 -0.021654 1.299652 -2.871002 0.388958 0.000000 0.000000 0.000000 -3.475625 -4.637881 1.465456 -10.304924 7.131384 2.529441 0.548774 21.620525 0.265975 10.387489 -12.104823 4.265782 0.000000 0.000000 0.000000 0.000000 0.000000 0.000000 1.063102 0.294965 0.307095 0.162657 -4.494325 -0.630689 3.876792 10.385455 -1.324926 -10.171068 -7.570976 0.854097 0.000000 0.000000 0.000000 0.000000 0.000000 0.000000 4.511852 -0.379485 52.896890 -1.074978 1.698123 -0.010501 0.789118 -1.847907 -1.405016 0.000000 0.000000 0.000000 3.510944 -0.987201 53.029288 -0.807295 1.659035 -0.298358 4.504968 6.277859 -0.910957 0.000000 0.000000 0.000000
-118.538783 81.034938 316.154921 -0.531482 1.751486 -52.651279 0.431999 0.082963 52.643580 0.059690 0.233655 -0.026274 1.175657 -2.268333 0.172545 0.000000 0.000000 0.000000 -3.482707 -4.690883 1.480558 -10.103813 7.291917 2.542883 4.765311 20.253980 0.571227 3.524974 -13.558923 0.645533 0.000000 0.000000 0.000000 0.000000 0.000000 0.000000 1.228238 0.329331 0.342183 0.097228 -4.426837 -0.648470 4.045023 10.684275 -1.415706 -10.079223 -9.557096 0.871592 0.000000 0.000000 0.000000 0.000000 0.000000 0.000000 4.623986 -0.295498 52.857756 -2.032264 2.110148 -0.127595 1.373891 -1.097221 -0.658046 0.000000 0.000000 0.000000 3.602047 -0.942176 53.017224 -0.894347 1.688939 -0.309006 2.974965 4.188105 -0.542681 0.000000 0.000000 0.000000
-118.538403 81.003196 316.253929 -0.500156 1.689384 -52.714862 0.335576 0.105518 52.705588 0.043145 0.213017 -0.027866 0.171030 -1.699151 0.050967 0.000000 0.000000 0.000000 -3.413141 -4.567085 1.451701 -9.438094 7.170506 2.387116 7.422462 19.245964 0.967634 -3.364048 -14.467011 -2.725968 0.000000 0.000000 0.000000 0.000000 0.000000 0.000000 1.321847 0.288673 0.363955 0.120154 -4.045318 -0.654585 4.191480 9.351783 -1.390905 -10.704673 -9.672634 1.027098 0.000000 0.000000 0.000000 0.000000 0.000000 0.000000 4.562512 -0.170710 52.891675 -2.122563 2.049868 -0.102216 1.813373 -0.682455 -0.485724 0.000000 0.000000 0.000000 3.481969 -0.818308 53.066180 -0.948707 1.582191 -0.298739 2.034491 4.096552 0.200466 0.000000 0.000000 0.000000
-118.437118 80.989315 316.393022 -0.350328 1.612247 -53.024528 0.207565 0.086266 53.013465 0.004462 0.197629 -0.028618 0.314592 -0.419534 -0.391751 0.000000 0.000000 0.000000 -3.260148 -4.378801 1.380106 -8.269886 6.884786 2.090055 9.316871 18.643825 1.545123 -7.124080 -16.049070 -5.049404 0.000000 0.000000 0.000000 0.000000 0.000000 0.000000 1.366218 0.161072 0.381465 0.157624 -3.498543 -0.657575 3.982876 7.790161 -1.251058 -9.601203 -10.521883 1.201362 0.000000 0.000000 0.000000 0.000000 0.000000 0.000000 4.220235 -0.229386 53.186266 -2.000239 1.902120 -0.092746 2.013056 -2.260883 -1.272606 0.000000 0.000000 0.000000 3.131970 -0.835321 53.337405 -0.858724 1.396666 -0.266724 0.199709 2.796054 1.150655 0.000000 0.000000 0.000000
